<?xml version="1.0" encoding="UTF-8" standalone="no"?>
<!-- Generator: Adobe Illustrator 16.0.0, SVG Export Plug-In . SVG Version: 6.00 Build 0)  -->

<svg
   xmlns:dc="http://purl.org/dc/elements/1.1/"
   xmlns:cc="http://creativecommons.org/ns#"
   xmlns:rdf="http://www.w3.org/1999/02/22-rdf-syntax-ns#"
   xmlns:svg="http://www.w3.org/2000/svg"
   xmlns="http://www.w3.org/2000/svg"
   xmlns:sodipodi="http://sodipodi.sourceforge.net/DTD/sodipodi-0.dtd"
   xmlns:inkscape="http://www.inkscape.org/namespaces/inkscape"
   version="1.0"
   id="Layer_1"
   x="0px"
   y="0px"
   width="50"
   height="22"
   viewBox="0 0 50 22.000001"
   enable-background="new 0 0 185.095 94.309"
   xml:space="preserve"
   inkscape:version="0.48.4 r9939"
   sodipodi:docname="logo.svg"><metadata
     id="metadata3079"><rdf:RDF><cc:Work
         rdf:about=""><dc:format>image/svg+xml</dc:format><dc:type
           rdf:resource="http://purl.org/dc/dcmitype/StillImage" /><dc:title /></cc:Work></rdf:RDF></metadata><defs
     id="defs3077" /><sodipodi:namedview
     pagecolor="#ffffff"
     bordercolor="#666666"
     borderopacity="1"
     objecttolerance="10"
     gridtolerance="10"
     guidetolerance="10"
     inkscape:pageopacity="0"
     inkscape:pageshadow="2"
     inkscape:window-width="1877"
     inkscape:window-height="1059"
     id="namedview3075"
     showgrid="false"
     inkscape:zoom="2.188164"
     inkscape:cx="150.42297"
     inkscape:cy="-70.626349"
     inkscape:window-x="1409"
     inkscape:window-y="21"
     inkscape:window-maximized="1"
     inkscape:current-layer="g3986"
     showguides="true"
     inkscape:guide-bbox="true" /><g
     style="font-size:16.66111946px;font-style:normal;font-variant:normal;font-weight:normal;font-stretch:normal;line-height:125%;letter-spacing:0px;word-spacing:0px;fill:#333333;fill-opacity:1;stroke:none;font-family:comfortaa;-inkscape-font-specification:comfortaa"
     id="text3946"
     transform="translate(0,-68.000001)"><g
       id="g3986"
       transform="translate(-5.0000007,5.9687499)"><g
         id="g3229"
         transform="matrix(0.31124914,0,0,0.3121763,2.2199211,58.782121)"
         style="fill:#df401f;fill-opacity:0.94117647"><g
           id="g3231"
           style="fill:#df401f;fill-opacity:0.94117647"><path
             id="path3233"
             d="m 113.841,70.759 c -0.578,-0.801 -1.223,-1.245 -1.712,-1.245 -0.511,0 -1,0.223 -1.333,0.578 -0.223,0.244 -0.4,0.601 -0.4,1.066 -0.022,0.801 0.689,1.045 1.556,1.067 1.756,0.045 3.444,1.089 3.444,3.222 0.022,2.245 -1.777,3.29 -3.556,3.29 -1.2,0 -2.667,-0.778 -3.489,-2.223 l 1.533,-0.822 c 0.512,0.845 1.289,1.245 1.979,1.245 0.889,0 1.733,-0.512 1.733,-1.49 0,-0.933 -0.8,-1.377 -1.667,-1.399 -1.844,-0.045 -3.334,-0.822 -3.334,-2.89 -0.021,-2.178 1.734,-3.399 3.512,-3.399 1.134,0 2.334,0.622 3.245,2 l -1.511,1 z"
             inkscape:connector-curvature="0"
             style="fill:#df401f;fill-opacity:0.94117647" /><path
             id="path3235"
             d="m 120.552,67.848 v 1.8 h -2.223 v 5.334 c 0,1.022 1.111,1.822 2.423,1.822 v 1.778 c -2.245,0 -4.2,-1.489 -4.2,-3.601 V 63.514 h 1.777 v 4.334 h 2.223 z"
             inkscape:connector-curvature="0"
             style="fill:#df401f;fill-opacity:0.94117647" /><path
             id="path3237"
             d="m 125.019,78.693 c -1.955,0 -3.467,-1.622 -3.467,-3.511 v -7.29 h 1.8 v 7.29 c 0,0.933 0.756,1.711 1.667,1.711 0.934,0 1.689,-0.778 1.689,-1.711 v -7.29 h 1.777 v 7.29 c 10e-4,1.889 -1.443,3.511 -3.466,3.511 z"
             inkscape:connector-curvature="0"
             style="fill:#df401f;fill-opacity:0.94117647" /><path
             id="path3239"
             d="m 130.019,75.47 v -4.244 c 0,-1.8 1.601,-3.578 3.578,-3.423 0.6,0.045 1.312,0.312 1.711,1.045 v -5.423 h 1.801 v 15.157 h -1.355 l -0.355,-1.112 c -0.4,0.912 -1.178,1.245 -1.845,1.245 -2.424,0 -3.535,-1.4 -3.535,-3.245 z m 1.801,0 c 0,0.89 0.8,1.468 1.777,1.468 0.956,0 1.711,-0.801 1.711,-1.578 v -4.223 c -0.021,-0.889 -0.6,-1.534 -1.711,-1.534 -0.955,0 -1.777,0.712 -1.777,1.623 v 4.244 z"
             inkscape:connector-curvature="0"
             style="fill:#df401f;fill-opacity:0.94117647" /><path
             id="path3241"
             d="m 140.82,65.559 c 0,0.645 -0.556,1.11 -1.155,1.11 -0.577,0 -1.089,-0.466 -1.089,-1.11 0,-0.689 0.512,-1.134 1.089,-1.134 0.599,0 1.155,0.445 1.155,1.134 z m -0.244,13.024 h -1.777 v -10.69 h 1.777 v 10.69 z"
             inkscape:connector-curvature="0"
             style="fill:#df401f;fill-opacity:0.94117647" /><path
             id="path3243"
             d="m 149.287,75.16 c 0,2.378 -1.822,3.533 -3.622,3.533 -1.822,0 -3.601,-1.155 -3.601,-3.533 v -3.89 c 0,-2.399 1.801,-3.511 3.601,-3.511 1.822,0 3.622,1.111 3.622,3.511 v 3.89 z m -1.8,-3.89 c 0,-1.133 -0.911,-1.733 -1.822,-1.733 -0.89,0 -1.822,0.601 -1.822,1.733 v 3.89 c 0,1.133 0.933,1.711 1.822,1.711 0.911,0 1.822,-0.578 1.822,-1.711 v -3.89 z"
             inkscape:connector-curvature="0"
             style="fill:#df401f;fill-opacity:0.94117647" /></g><g
           id="g3245"
           style="fill:#df401f;fill-opacity:0.94117647"><path
             id="path3247"
             d="m 167.943,21.533 h -9.406 V 17.98 c 0,-1.596 -1.297,-1.797 -2.895,-1.797 -1.597,0 -2.893,0.201 -2.893,1.797 v 3.553 h -4.732 c -1.479,0 -1.634,1.197 -1.634,2.673 0,1.48 0.155,2.677 1.634,2.677 h 4.732 V 54.5 h -2.812 V 38.816 c 0,-5.21 -4.223,-9.433 -9.433,-9.433 -1.418,0 -2.762,0.315 -3.969,0.876 -0.43,-0.741 -1.449,-0.876 -2.638,-0.876 -1.578,0 -2.857,0.236 -2.857,1.813 V 54.498 L 119.812,54.5 c -2.014,0 -3.648,-1.632 -3.648,-3.647 v -4.48 h 7.397 l 10e-4,-0.003 c 5.572,-0.063 5.634,-5.008 5.634,-5.162 V 41.202 38.77 c 0,-5.186 -4.202,-9.386 -9.384,-9.386 -5.185,0 -9.386,4.2 -9.386,9.386 v 2.593 c -0.229,0.021 -0.464,0.035 -0.712,0.035 -0.42,0 -0.811,-0.035 -1.174,-0.09 v -10.11 c 0,-1.577 -1.316,-1.813 -2.943,-1.813 -1.625,0 -2.942,0.236 -2.942,1.813 v 19.419 c 0,2.014 -1.636,3.646 -3.647,3.646 -2.018,0 -3.65,-1.632 -3.65,-3.646 v -19.42 c 0,-1.577 -1.279,-1.813 -2.855,-1.813 -1.578,0 -2.856,0.236 -2.856,1.813 L 89.625,50.47 c 0,0.514 0.094,1.016 0.173,1.507 -0.206,-0.017 -0.409,-0.028 -0.608,-0.028 -0.455,0 -0.941,0.052 -1.412,0.128 V 38.816 c 0,-5.21 -4.222,-9.433 -9.432,-9.433 -5.209,0 -9.432,4.223 -9.432,9.433 V 50.47 c 0,0.378 0.024,0.751 0.068,1.117 -0.341,-0.043 -0.685,-0.069 -1.015,-0.069 -0.325,0 -0.665,0.026 -1.004,0.069 0.043,-0.366 0.068,-0.739 0.068,-1.117 V 38.816 c 0,-5.21 -4.219,-9.433 -9.432,-9.433 -5.21,0 -9.433,4.223 -9.433,9.433 V 50.47 c 0,1.442 0.324,2.808 0.902,4.029 h -0.902 c -0.049,-0.011 -0.099,-0.021 -0.147,-0.032 -2.352,-0.534 -4.537,-1.868 -6.453,-3.801 2.935,-4.755 4.876,-11.012 5.309,-17.958 0.092,-1.058 0.139,-2.147 0.139,-3.262 0,-10.505 -4.229,-19.038 -9.425,-19.038 -5.131,0 -9.284,8.338 -9.39,18.661 h -0.002 c -0.003,0.127 -0.003,0.251 -0.003,0.377 0,0.005 0,0.009 0,0.014 0,0.004 0,0.008 0,0.011 h 0 c 0.001,1.105 0.048,2.187 0.136,3.237 0.432,6.941 2.371,13.192 5.303,17.946 -1.66,1.669 -3.519,2.892 -5.506,3.542 -0.371,0.121 -1.491,0.303 -1.939,0.303 -0.037,0 -0.073,0 -0.109,0 h -7.761 c -2.016,0 -3.647,-1.632 -3.647,-3.647 v -4.483 h 7.292 v 0.003 c 0.033,0 0.062,-0.002 0.095,-0.003 h 0.006 l 0,0 C 27.637,46.308 27.7,41.361 27.7,41.207 v -0.006 -2.432 c 0,-5.186 -4.2,-9.386 -9.382,-9.386 -5.184,0 -9.386,4.2 -9.386,9.386 v 11.749 c 0,5.182 4.202,9.385 9.386,9.385 0.022,0 0.043,-10e-4 0.066,-10e-4 l 0,10e-4 H 27 c 0.209,0.01 0.413,0 0.622,0 3.656,0 7.07,-1.574 9.981,-4.308 2.911,2.733 6.325,4.308 9.981,4.308 0.193,0 9.965,0 9.965,0 0,0 0.032,0 0.048,0 2.432,0 4.646,-0.919 6.318,-2.428 0,0 1.551,-1.166 4.05,-1.166 2.502,0 4.051,1.157 4.051,1.157 1.673,1.514 3.893,2.437 6.328,2.437 1.254,0 2.451,-0.247 3.546,-0.691 V 78.98 c 0,1.625 1.317,1.901 2.943,1.901 1.626,0 2.943,-0.276 2.943,-1.901 V 56.87 c 0.428,-0.079 0.898,-0.13 1.412,-0.13 2.502,0 4.052,1.113 4.052,1.113 1.61,1.282 3.648,2.05 5.868,2.05 5.209,0 9.432,-4.223 9.432,-9.433 v -4.377 c 0.395,0.056 0.793,0.092 1.172,0.092 0.233,0 0.473,-0.013 0.714,-0.036 v 4.369 c 0,5.023 3.95,9.144 8.915,9.389 V 59.903 L 133.429,59.9 c 0.068,0 0.379,0.003 0.47,0.003 1.577,0 2.856,-1.279 2.856,-2.857 V 38.669 c 0,-2.016 1.633,-3.647 3.648,-3.647 2.015,0 3.648,1.632 3.648,3.647 0,0 -0.002,18.51 0,18.532 0.022,0.278 0.057,0.435 0.124,0.664 0.363,1.178 1.487,2.037 2.817,2.037 0.141,0 8.479,0 8.648,0 1.598,0 2.895,-1.295 2.895,-2.893 V 26.882 h 9.406 c 1.479,0 1.634,-1.196 1.634,-2.677 0.002,-1.475 -0.154,-2.672 -1.632,-2.672 z M 18.316,34.788 c 2.013,0 3.645,1.632 3.645,3.645 v 2.766 h -7.292 v -2.766 c 0,-2.014 1.631,-3.645 3.647,-3.645 z m 18.086,7.717 c -0.02,-0.049 -0.023,-0.061 -0.023,-0.06 -0.003,-0.009 -0.009,-0.023 -0.021,-0.052 -1.267,-3.178 -2.098,-6.816 -2.362,-10.721 -0.025,-0.75 -0.038,-1.524 -0.038,-2.312 0,-0.02 0,-0.038 0,-0.057 0,-7.483 1.692,-13.493 3.803,-13.493 2.11,0 3.485,6.067 3.485,13.55 0,0.787 -0.012,1.562 -0.038,2.312 -0.263,3.904 -1.095,7.543 -2.361,10.721 -0.044,0.111 -0.013,0.038 -0.044,0.111 -0.366,0.906 -0.767,1.776 -1.201,2.607 -0.432,-0.829 -0.833,-1.699 -1.2,-2.606 z m 24.744,8.111 c 0,2.014 -1.635,3.646 -3.651,3.646 -2.016,0 -3.646,-1.632 -3.646,-3.646 V 38.315 c 0,-2.017 1.631,-3.651 3.646,-3.651 2.017,0 3.651,1.635 3.651,3.651 v 12.301 z m 17.095,3.645 c -2.014,0 -3.648,-1.632 -3.648,-3.646 v -12.3 c 0,-2.017 1.635,-3.651 3.648,-3.651 2.016,0 3.65,1.635 3.65,3.651 v 12.301 c 0,2.013 -1.635,3.645 -3.65,3.645 z m 41.571,-19.473 c 2.012,0 3.645,1.632 3.645,3.645 v 2.769 h -7.293 v -2.769 c 0,-2.014 1.634,-3.645 3.648,-3.645 z"
             inkscape:connector-curvature="0"
             style="fill:#df401f;fill-opacity:0.94117647" /><path
             id="path3249"
             d="m 36.379,42.446 c 0.009,0.023 0,0 0,0 l 0,0 z"
             inkscape:connector-curvature="0"
             style="fill:#df401f;fill-opacity:0.94117647" /></g></g></g></g></svg>