<?xml version="1.0" encoding="UTF-8" standalone="no"?>
<!-- Created with Inkscape (http://www.inkscape.org/) -->

<svg
   xmlns:dc="http://purl.org/dc/elements/1.1/"
   xmlns:cc="http://creativecommons.org/ns#"
   xmlns:rdf="http://www.w3.org/1999/02/22-rdf-syntax-ns#"
   xmlns:svg="http://www.w3.org/2000/svg"
   xmlns="http://www.w3.org/2000/svg"
   xmlns:sodipodi="http://sodipodi.sourceforge.net/DTD/sodipodi-0.dtd"
   xmlns:inkscape="http://www.inkscape.org/namespaces/inkscape"
   width="360"
   height="360"
   id="svg3269"
   version="1.1"
   inkscape:version="0.48.4 r9939"
   sodipodi:docname="icon.svg"
   inkscape:export-filename="/home/walmir/workspace/ruby/emmet/lavenda/app/assets/images/icon.png"
   inkscape:export-xdpi="90"
   inkscape:export-ydpi="90">
  <defs
     id="defs3271" />
  <sodipodi:namedview
     id="base"
     pagecolor="#ffffff"
     bordercolor="#666666"
     borderopacity="1.0"
     inkscape:pageopacity="0.0"
     inkscape:pageshadow="2"
     inkscape:zoom="1.7913372"
     inkscape:cx="170.2058"
     inkscape:cy="171.42718"
     inkscape:document-units="px"
     inkscape:current-layer="g3431"
     showgrid="false"
     showguides="true"
     inkscape:guide-bbox="true"
     inkscape:window-width="1877"
     inkscape:window-height="1059"
     inkscape:window-x="1409"
     inkscape:window-y="21"
     inkscape:window-maximized="1"
     width="17px" />
  <metadata
     id="metadata3274">
    <rdf:RDF>
      <cc:Work
         rdf:about="">
        <dc:format>image/svg+xml</dc:format>
        <dc:type
           rdf:resource="http://purl.org/dc/dcmitype/StillImage" />
        <dc:title></dc:title>
      </cc:Work>
    </rdf:RDF>
  </metadata>
  <g
     inkscape:label="Layer 1"
     inkscape:groupmode="layer"
     id="layer1"
     transform="translate(0,-692.3622)">
    <g
       id="g3431"
       transform="matrix(0.10000002,0,0,0.10000002,200.10999,969.12008)">
      <g
         transform="matrix(70.999732,0,0,71.999993,22976.408,742.71566)"
         id="g3375"
         inkscape:export-filename="/home/walmir/workspace/ruby/emmet/lavenda/app/assets/images/icon.png"
         inkscape:export-xdpi="90"
         inkscape:export-ydpi="90">
        <g
           id="g3377">
          <path
             id="path3379"
             d="m -312.29874,-37.110406 c -0.10843,-0.347496 -0.35968,-0.613878 -0.70863,-0.750357 l -0.76259,-0.297766 c -0.0492,-0.07829 -0.15783,-0.163186 -0.39732,-0.145598 -0.098,0.0072 -0.20988,0.0312 -0.3327,0.07088 l -7.11706,2.302889 c -0.68453,0.221685 -1.47217,0.941223 -1.75601,1.604333 l -4.58751,10.719833 c -0.13642,0.318489 -0.13635,0.600204 3.3e-4,0.79225 0.14887,0.209446 0.44693,0.286902 0.81668,0.20852 l 0.87584,-0.184224 c 0.31786,-0.06641 0.57514,-0.0056 0.70101,0.165506 0.11649,0.158056 0.12061,0.398963 0.0119,0.678256 l -4.01347,10.418463 c -0.12334,0.316962 -0.13937,0.331929 -0.11057,0.611258 l 0.006,-5.09e-4 -0.0111,-0.152005 c 1e-4,0.0015 -0.008,0.0036 -0.007,0.0059 l 0.23429,0.945055 c 0.12568,0.6642809 0.47967,0.8428867 0.68044,0.8906222 0.0585,0.013181 0.13217,0.022901 0.2187,0.01659 0.21297,-0.015623 0.49697,-0.1268449 0.78583,-0.5097157 l 11.19851,-14.8420015 c 0.29299,-0.387965 0.39848,-0.841803 0.28928,-1.245824 -0.0967,-0.359909 -0.34906,-0.641395 -0.71034,-0.792734 l -0.78043,-0.32714 c -0.0606,-0.103619 -0.20358,-0.216952 -0.54272,-0.192041 -0.0232,0.0015 -0.0502,0.0073 -0.0753,0.01013 l 5.86055,-8.723311 c 0.27412,-0.40797 0.35913,-0.873253 0.23365,-1.277208 z m -4.72398,11.502435 c 0.0462,0.172799 -0.0122,0.385364 -0.1612,0.582622 l -11.19915,14.840907 c -0.10364,0.137084 -0.18456,0.1894661 -0.21971,0.2038631 -0.0254,-0.02855 -0.0749,-0.1112881 -0.1069,-0.2803511 0,0 -0.24244,-0.991457 -0.2545,-1.364053 l 10.98442,-14.557208 0.69013,0.289298 c 0.14009,0.05868 0.23232,0.157151 0.26691,0.284922 z m 3.8554,-10.65396 -6.27865,9.346182 -0.69668,0.132229 c -0.31,0.05879 -0.53738,0.0116 -0.61765,-0.126855 -0.0759,-0.131776 -0.024,-0.349482 0.1419,-0.596958 l 6.6533,-9.903383 0.67996,0.265562 c 0.13087,0.05116 0.21706,0.140255 0.25613,0.264047 0.0558,0.179954 0.005,0.405435 -0.13829,0.619207 z"
             inkscape:connector-curvature="0"
             style="fill:#df4015;fill-opacity:1" />
          <path
             inkscape:connector-curvature="0"
             style="fill:#000000"
             d="m -320.97144,-48.754087 c -4.2983,0 -8.34226,0.28486 -11.40094,0.81107 -3.84772,0.662596 -5.54032,1.570618 -5.62912,3.00573 -0.002,0.02239 -0.0153,0.04071 -0.0159,0.06361 -10e-4,0.0173 0,0.03043 0,0.04768 0,0.04733 0.0123,0.09733 0.0159,0.14313 0.001,0.0076 -0.002,0.0078 0,0.01588 l 0,0.01588 c 0.006,0.05547 0.006,0.121502 0.0159,0.174937 l 0.55498,4.134866 c -0.37221,-0.02005 -6.4522,-0.330555 -9.08587,1.924303 -3.39059,2.902137 -3.80007,11.685794 2.09308,18.940868 3.43285,4.222963 10.35299,7.550597 10.86182,7.792633 l 1.22096,9.0648985 c 0.1167,3.7592932 10.21131,3.8645096 11.36923,3.8645096 1.14624,0 11.04752,-0.108906 11.36922,-3.7531862 0.002,-0.00662 -0.001,-0.00875 0,-0.015878 l 5.64497,-41.9529889 c 0.0107,-0.05394 0.0272,-0.118957 0.0317,-0.174936 l 0,-0.01588 c 5e-4,-0.0081 -5.1e-4,-0.0083 0,-0.01588 0.004,-0.0458 0.0158,-0.0958 0.0158,-0.14313 0,-0.0173 -0.0158,-0.03043 -0.0158,-0.04769 -0.001,-0.0229 0.003,-0.04122 0,-0.06361 -0.0888,-1.434608 -1.78191,-2.343642 -5.62912,-3.00573 -3.05818,-0.526209 -7.11748,-0.81107 -11.41679,-0.81107 z m 0,2.417306 c 7.5503,0 12.2761,0.840587 14.049,1.510817 -1.7729,0.671248 -6.4987,1.52672 -14.049,1.52672 -7.5493,0 -12.26126,-0.855472 -14.03315,-1.52672 1.77189,-0.67023 6.48385,-1.510817 14.03315,-1.510817 z m -14.30271,3.95993 c 0.78294,0.249873 1.7474,0.469466 2.90177,0.66794 3.05767,0.526204 7.10315,0.826973 11.40094,0.826973 4.29981,0 8.35861,-0.300255 11.41679,-0.826973 1.15437,-0.198983 2.10348,-0.418067 2.88591,-0.66794 l -4.78871,35.6234627 c -0.0654,0.1231554 -0.10858,0.2699698 -0.12685,0.4134866 -0.54699,0.5954156 -3.80458,1.6698498 -9.38714,1.6698498 -5.58104,0 -8.8243,-1.0744342 -9.37129,-1.6698498 -0.0172,-0.1348603 -0.069,-0.2651454 -0.12685,-0.38168 l -4.80457,-35.6552693 z m -5.83525,5.454843 c 2.2404,-0.01751 3.90437,2.332141 4.61428,3.530539 l 2.25165,16.666692 c -0.56515,-0.131751 -1.10907,-0.305975 -1.64909,-0.540713 -3.85881,-1.678517 -6.99136,-5.814508 -8.81631,-10.448489 -1.3599,-3.457812 -0.93367,-5.983047 0.23785,-7.506373 0.74708,-0.972546 1.8037,-1.536557 2.90177,-1.66985 0.15681,-0.01944 0.3019,-0.03053 0.45985,-0.03181 z m 29.20797,33.4128993 -0.0793,0.6520366 c -5.1e-4,0.00356 5.1e-4,0.012315 0,0.015878 0,0.00356 10e-4,0.011807 0,0.015878 -0.51401,0.588296 -3.63447,1.6539465 -8.99072,1.6539465 -5.3319,0 -8.43854,-1.0631059 -8.97487,-1.6539465 l -0.0793,-0.6679399 c 3.21903,1.192363 8.24483,1.2404598 9.05416,1.2404598 0.81135,0 5.85047,-0.060942 9.07001,-1.2563632 z"
             id="path3381" />
        </g>
      </g>
      <rect
         style="fill:none;stroke:none"
         id="rect2987"
         width="3599.9993"
         height="3599.9993"
         x="-2001.0995"
         y="-2767.5781"
         inkscape:export-filename="/home/walmir/workspace/ruby/emmet/lavenda/app/assets/images/icon.png"
         inkscape:export-xdpi="90"
         inkscape:export-ydpi="90" />
    </g>
  </g>
</svg>
