<?xml version="1.0" encoding="UTF-8" standalone="no"?>
<!-- Created with Inkscape (http://www.inkscape.org/) -->

<svg
   xmlns:dc="http://purl.org/dc/elements/1.1/"
   xmlns:cc="http://creativecommons.org/ns#"
   xmlns:rdf="http://www.w3.org/1999/02/22-rdf-syntax-ns#"
   xmlns:svg="http://www.w3.org/2000/svg"
   xmlns="http://www.w3.org/2000/svg"
   xmlns:sodipodi="http://sodipodi.sourceforge.net/DTD/sodipodi-0.dtd"
   xmlns:inkscape="http://www.inkscape.org/namespaces/inkscape"
   width="173"
   height="37"
   id="svg3269"
   version="1.1"
   inkscape:version="0.48.4 r9939"
   sodipodi:docname="icon.svg">
  <defs
     id="defs3271" />
  <sodipodi:namedview
     id="base"
     pagecolor="#ffffff"
     bordercolor="#666666"
     borderopacity="1.0"
     inkscape:pageopacity="0.0"
     inkscape:pageshadow="2"
     inkscape:zoom="6.042176"
     inkscape:cx="83.937342"
     inkscape:cy="21.313363"
     inkscape:document-units="px"
     inkscape:current-layer="g3431"
     showgrid="false"
     showguides="true"
     inkscape:guide-bbox="true"
     inkscape:window-width="1877"
     inkscape:window-height="1059"
     inkscape:window-x="1409"
     inkscape:window-y="21"
     inkscape:window-maximized="1"
     width="17px" />
  <metadata
     id="metadata3274">
    <rdf:RDF>
      <cc:Work
         rdf:about="">
        <dc:format>image/svg+xml</dc:format>
        <dc:type
           rdf:resource="http://purl.org/dc/dcmitype/StillImage" />
        <dc:title></dc:title>
      </cc:Work>
    </rdf:RDF>
  </metadata>
  <g
     inkscape:label="Layer 1"
     inkscape:groupmode="layer"
     id="layer1"
     transform="translate(0,-1015.3622)">
    <g
       id="g3431"
       transform="matrix(0.10000002,0,0,0.10000002,200.10999,969.12008)">
      <g
         id="g3672">
        <path
           id="path3360"
           transform="matrix(9.999998,0,0,9.999998,-2001.0995,462.42111)"
           d="M 139.90625 3.34375 L 139.90625 15 C 138.07814 12.965529 135.7333 11.96878 132.84375 11.96875 C 129.95418 11.96878 127.43368 13.073399 125.28125 15.34375 C 123.12882 17.58465 122.0625 20.493019 122.0625 24.03125 C 122.0625 27.569502 123.1636 30.51794 125.375 32.90625 C 127.58639 35.294561 130.07388 36.5 132.875 36.5 C 135.70558 36.5 138.04866 35.329341 139.90625 33 L 139.90625 36.15625 L 146.5625 36.15625 L 146.5625 3.34375 L 139.90625 3.34375 z M 0.5 3.6875 L 0.5 36.5 L 7.125 36.5 L 7.125 3.6875 L 0.5 3.6875 z M 23.84375 11.96875 C 19.833739 11.96878 16.281691 13.073399 13.15625 15.34375 L 16.125 19.65625 C 17.00956 18.9781 18.07587 18.41105 19.34375 17.96875 C 20.64109 17.49701 21.85006 17.25002 23 17.25 C 25.683151 17.25002 27.03123 18.526779 27.03125 21.0625 L 27.03125 21.1875 L 22.09375 21.1875 C 19.027269 21.18751 16.61287 21.79112 14.84375 23 C 13.07463 24.20891 12.1875 26.05272 12.1875 28.5 C 12.1875 30.9178 13.03984 32.86949 14.75 34.34375 C 16.46014 35.788531 18.556239 36.5 21.0625 36.5 C 23.598231 36.5 25.72734 35.433681 27.4375 33.28125 L 27.4375 36.15625 L 33.65625 36.15625 L 33.65625 20.96875 C 33.65623 17.843319 32.76556 15.569801 30.9375 14.125 C 29.10939 12.68024 26.733301 11.96878 23.84375 11.96875 z M 78.59375 11.96875 C 75.320869 11.96878 72.44904 13.069879 70.03125 15.28125 C 67.64294 17.49267 66.46874 20.474129 66.46875 24.21875 C 66.46874 27.963402 67.64117 30.94662 70 33.1875 C 72.35881 35.398901 75.340279 36.5 78.9375 36.5 C 82.564181 36.5 85.723059 35.223242 88.40625 32.6875 L 84.6875 28.65625 C 83.18373 30.21898 81.26683 31.03126 78.9375 31.03125 C 77.49271 31.03126 76.18117 30.60684 75.03125 29.78125 C 73.88131 28.95567 73.20639 27.89111 73 26.59375 L 90.34375 26.59375 L 90.34375 23.0625 C 90.34372 19.612729 89.20609 16.88179 86.90625 14.90625 C 84.63586 12.930759 81.866601 11.96878 78.59375 11.96875 z M 162.6875 11.96875 C 158.67748 11.96878 155.09419 13.073399 151.96875 15.34375 L 154.9375 19.65625 C 155.82205 18.9781 156.88837 18.41105 158.15625 17.96875 C 159.45359 17.49701 160.69381 17.25002 161.84375 17.25 C 164.5269 17.25002 165.87499 18.526779 165.875 21.0625 L 165.875 21.1875 L 160.90625 21.1875 C 157.83976 21.18751 155.42537 21.79112 153.65625 23 C 151.88713 24.20891 151 26.05272 151 28.5 C 151 30.9178 151.85235 32.86949 153.5625 34.34375 C 155.27264 35.788531 157.39999 36.5 159.90625 36.5 C 162.44198 36.5 164.53984 35.433681 166.25 33.28125 L 166.25 36.15625 L 172.5 36.15625 L 172.5 20.96875 C 172.49998 17.843319 171.57806 15.569801 169.75 14.125 C 167.92189 12.68024 165.57704 11.96878 162.6875 11.96875 z M 108.625 12.3125 C 106.11873 12.31253 103.87999 13.309279 101.875 15.34375 L 101.875 12.71875 L 95.21875 12.71875 L 95.21875 36.5 L 101.875 36.5 L 101.875 23.21875 C 101.87499 21.36119 102.33947 19.9748 103.3125 19.03125 C 104.31499 18.05825 105.48565 17.56251 106.8125 17.5625 C 109.49565 17.56251 110.84373 19.406329 110.84375 23.0625 L 110.84375 36.5 L 117.46875 36.5 L 117.46875 22.03125 C 117.46872 19.082739 116.61637 16.737891 114.90625 14.96875 C 113.22556 13.19966 111.13123 12.31253 108.625 12.3125 z M 78.65625 17.4375 C 79.98307 17.43751 81.11719 17.82715 82.03125 18.59375 C 82.94528 19.36039 83.47756 20.45972 83.625 21.875 L 73.1875 21.875 C 73.36441 20.51869 74.00278 19.42112 75.09375 18.625 C 76.18469 17.82892 77.35888 17.43751 78.65625 17.4375 z M 134.4375 17.53125 C 136.00021 17.53127 137.31351 18.17142 138.375 19.46875 C 139.46594 20.73664 139.99998 22.33523 140 24.28125 C 139.99998 26.197801 139.46594 27.79288 138.375 29.03125 C 137.31351 30.24016 136.00197 30.84376 134.46875 30.84375 C 132.9355 30.84376 131.61867 30.24016 130.46875 29.03125 C 129.31881 27.79288 128.71874 26.197801 128.71875 24.28125 C 128.71874 22.36471 129.2858 20.76612 130.40625 19.46875 C 131.52668 18.17142 132.87477 17.53127 134.4375 17.53125 z M 22.84375 25.9375 L 27 25.9375 L 27 27.09375 C 26.99999 28.30266 26.53903 29.26287 25.625 30 C 24.74043 30.70765 23.71065 31.06251 22.53125 31.0625 C 21.35183 31.06251 20.42992 30.84854 19.78125 30.40625 C 19.16205 29.93449 18.84374 29.26133 18.84375 28.40625 C 18.84374 26.75508 20.190059 25.93751 22.84375 25.9375 z M 161.65625 25.9375 L 165.8125 25.9375 L 165.8125 27.09375 C 165.81249 28.30266 165.35153 29.26287 164.4375 30 C 163.55292 30.70765 162.52315 31.06251 161.34375 31.0625 C 160.16432 31.06251 159.27367 30.84854 158.625 30.40625 C 158.0058 29.93449 157.68749 29.26133 157.6875 28.40625 C 157.68749 26.75508 159.00256 25.93751 161.65625 25.9375 z "
           style="font-size:44.22800064px;font-style:normal;font-variant:normal;font-weight:bold;font-stretch:normal;line-height:125%;letter-spacing:0px;word-spacing:0px;fill:#df4015;fill-opacity:1;stroke:none;font-family:Montserrat;-inkscape-font-specification:Montserrat Bold" />
        <g
           id="g3375"
           transform="matrix(7.0999732,0,0,7.1999993,823.2714,818.45049)">
          <g
             id="g3377">
            <path
               style="fill:#df4015;fill-opacity:1"
               inkscape:connector-curvature="0"
               d="m -312.29874,-37.110406 c -0.10843,-0.347496 -0.35968,-0.613878 -0.70863,-0.750357 l -0.76259,-0.297766 c -0.0492,-0.07829 -0.15783,-0.163186 -0.39732,-0.145598 -0.098,0.0072 -0.20988,0.0312 -0.3327,0.07088 l -7.11706,2.302889 c -0.68453,0.221685 -1.47217,0.941223 -1.75601,1.604333 l -4.58751,10.719833 c -0.13642,0.318489 -0.13635,0.600204 3.3e-4,0.79225 0.14887,0.209446 0.44693,0.286902 0.81668,0.20852 l 0.87584,-0.184224 c 0.31786,-0.06641 0.57514,-0.0056 0.70101,0.165506 0.11649,0.158056 0.12061,0.398963 0.0119,0.678256 l -4.01347,10.418463 c -0.12334,0.316962 -0.13937,0.331929 -0.11057,0.611258 l 0.006,-5.09e-4 -0.0111,-0.152005 c 1e-4,0.0015 -0.008,0.0036 -0.007,0.0059 l 0.23429,0.945055 c 0.12568,0.6642809 0.47967,0.8428867 0.68044,0.8906222 0.0585,0.013181 0.13217,0.022901 0.2187,0.01659 0.21297,-0.015623 0.49697,-0.1268449 0.78583,-0.5097157 l 11.19851,-14.8420015 c 0.29299,-0.387965 0.39848,-0.841803 0.28928,-1.245824 -0.0967,-0.359909 -0.34906,-0.641395 -0.71034,-0.792734 l -0.78043,-0.32714 c -0.0606,-0.103619 -0.20358,-0.216952 -0.54272,-0.192041 -0.0232,0.0015 -0.0502,0.0073 -0.0753,0.01013 l 5.86055,-8.723311 c 0.27412,-0.40797 0.35913,-0.873253 0.23365,-1.277208 z m -4.72398,11.502435 c 0.0462,0.172799 -0.0122,0.385364 -0.1612,0.582622 l -11.19915,14.840907 c -0.10364,0.137084 -0.18456,0.1894661 -0.21971,0.2038631 -0.0254,-0.02855 -0.0749,-0.1112881 -0.1069,-0.2803511 0,0 -0.24244,-0.991457 -0.2545,-1.364053 l 10.98442,-14.557208 0.69013,0.289298 c 0.14009,0.05868 0.23232,0.157151 0.26691,0.284922 z m 3.8554,-10.65396 -6.27865,9.346182 -0.69668,0.132229 c -0.31,0.05879 -0.53738,0.0116 -0.61765,-0.126855 -0.0759,-0.131776 -0.024,-0.349482 0.1419,-0.596958 l 6.6533,-9.903383 0.67996,0.265562 c 0.13087,0.05116 0.21706,0.140255 0.25613,0.264047 0.0558,0.179954 0.005,0.405435 -0.13829,0.619207 z"
               id="path3379" />
            <path
               id="path3381"
               d="m -320.97144,-48.754087 c -4.2983,0 -8.34226,0.28486 -11.40094,0.81107 -3.84772,0.662596 -5.54032,1.570618 -5.62912,3.00573 -0.002,0.02239 -0.0153,0.04071 -0.0159,0.06361 -10e-4,0.0173 0,0.03043 0,0.04768 0,0.04733 0.0123,0.09733 0.0159,0.14313 0.001,0.0076 -0.002,0.0078 0,0.01588 l 0,0.01588 c 0.006,0.05547 0.006,0.121502 0.0159,0.174937 l 0.55498,4.134866 c -0.37221,-0.02005 -6.4522,-0.330555 -9.08587,1.924303 -3.39059,2.902137 -3.80007,11.685794 2.09308,18.940868 3.43285,4.222963 10.35299,7.550597 10.86182,7.792633 l 1.22096,9.0648985 c 0.1167,3.7592932 10.21131,3.8645096 11.36923,3.8645096 1.14624,0 11.04752,-0.108906 11.36922,-3.7531862 0.002,-0.00662 -0.001,-0.00875 0,-0.015878 l 5.64497,-41.9529889 c 0.0107,-0.05394 0.0272,-0.118957 0.0317,-0.174936 l 0,-0.01588 c 5e-4,-0.0081 -5.1e-4,-0.0083 0,-0.01588 0.004,-0.0458 0.0158,-0.0958 0.0158,-0.14313 0,-0.0173 -0.0158,-0.03043 -0.0158,-0.04769 -0.001,-0.0229 0.003,-0.04122 0,-0.06361 -0.0888,-1.434608 -1.78191,-2.343642 -5.62912,-3.00573 -3.05818,-0.526209 -7.11748,-0.81107 -11.41679,-0.81107 z m 0,2.417306 c 7.5503,0 12.2761,0.840587 14.049,1.510817 -1.7729,0.671248 -6.4987,1.52672 -14.049,1.52672 -7.5493,0 -12.26126,-0.855472 -14.03315,-1.52672 1.77189,-0.67023 6.48385,-1.510817 14.03315,-1.510817 z m -14.30271,3.95993 c 0.78294,0.249873 1.7474,0.469466 2.90177,0.66794 3.05767,0.526204 7.10315,0.826973 11.40094,0.826973 4.29981,0 8.35861,-0.300255 11.41679,-0.826973 1.15437,-0.198983 2.10348,-0.418067 2.88591,-0.66794 l -4.78871,35.6234627 c -0.0654,0.1231554 -0.10858,0.2699698 -0.12685,0.4134866 -0.54699,0.5954156 -3.80458,1.6698498 -9.38714,1.6698498 -5.58104,0 -8.8243,-1.0744342 -9.37129,-1.6698498 -0.0172,-0.1348603 -0.069,-0.2651454 -0.12685,-0.38168 l -4.80457,-35.6552693 z m -5.83525,5.454843 c 2.2404,-0.01751 3.90437,2.332141 4.61428,3.530539 l 2.25165,16.666692 c -0.56515,-0.131751 -1.10907,-0.305975 -1.64909,-0.540713 -3.85881,-1.678517 -6.99136,-5.814508 -8.81631,-10.448489 -1.3599,-3.457812 -0.93367,-5.983047 0.23785,-7.506373 0.74708,-0.972546 1.8037,-1.536557 2.90177,-1.66985 0.15681,-0.01944 0.3019,-0.03053 0.45985,-0.03181 z m 29.20797,33.4128993 -0.0793,0.6520366 c -5.1e-4,0.00356 5.1e-4,0.012315 0,0.015878 0,0.00356 10e-4,0.011807 0,0.015878 -0.51401,0.588296 -3.63447,1.6539465 -8.99072,1.6539465 -5.3319,0 -8.43854,-1.0631059 -8.97487,-1.6539465 l -0.0793,-0.6679399 c 3.21903,1.192363 8.24483,1.2404598 9.05416,1.2404598 0.81135,0 5.85047,-0.060942 9.07001,-1.2563632 z"
               style="fill:#000000"
               inkscape:connector-curvature="0" />
          </g>
        </g>
      </g>
    </g>
  </g>
</svg>
